PathFileType	4	(X/Y/Z)	TVC_41_BWA_02_walk_RCNL2025.trc
DataRate	CameraRate	NumFrames	NumMarkers	Units	OrigDataRate	OrigDataStartFrame	OrigNumFrames
100	100	4	27	mm	100	465	531
Frame#	Time	R_Shoulder			L_Shoulder			C7			J_Notch			R_Elbow			L_Elbow			R_Wrist			L_Wrist			R_Asis			L_Asis			R_Psis			L_Psis			Sacral			Thoracic			Sternum			R_Thigh_Lateral			R_Knee_Lateral			R_Shank_Lateral			R_Ankle_Lateral			R_Heel			R_Toe			L_Thigh_Lateral			L_Knee_Lateral			L_Shank_Lateral			L_Ankle_Lateral			L_Heel			L_Toe		
		X1	Y1	Z1	X2	Y2	Z2	X3	Y3	Z3	X4	Y4	Z4	X5	Y5	Z5	X6	Y6	Z6	X7	Y7	Z7	X8	Y8	Z8	X9	Y9	Z9	X10	Y10	Z10	X11	Y11	Z11	X12	Y12	Z12	X13	Y13	Z13	X14	Y14	Z14	X15	Y15	Z15	X16	Y16	Z16	X17	Y17	Z17	X18	Y18	Z18	X19	Y19	Z19	X20	Y20	Z20	X21	Y21	Z21	X22	Y22	Z22	X23	Y23	Z23	X24	Y24	Z24	X25	Y25	Z25	X26	Y26	Z26	X27	Y27	Z27
465	4.64000000	-643.916626	1260.953125	-71.387306	-560.913635	1267.245850	-396.809479	-631.354919	1335.809204	-240.607254	-538.657166	1208.883911	-211.789566	-783.522217	998.763550	-63.389160	-608.115234	986.769043	-489.719055	-598.065247	916.077332	-53.296875	-480.882309	822.912628	-506.653992	-637.007263	891.767639	-105.110878	-574.667053	853.842712	-338.541199	-777.215454	893.772705	-217.738998	-760.656433	877.077454	-303.380005	-768.935944	885.425079	-260.559502	-719.155029	1039.532104	-274.908997	-529.489990	1027.120239	-222.407944	-676.888428	679.215881	-7.672686	-679.663208	439.775604	-67.058205	-765.972656	328.092621	-12.059525	-804.625000	120.837639	-75.231659	-839.121826	108.282059	-136.296356	-719.521179	48.806896	-39.246681	-642.578247	579.526794	-417.965668	-630.799927	400.683380	-309.370667	-656.441711	257.070282	-355.464081	-698.251831	61.790230	-267.401428	-745.308655	44.765526	-227.810501	-577.888062	37.359489	-243.974960
466	4.65000000	-644.173950	1261.045654	-71.834312	-561.219604	1267.239990	-397.277435	-631.389587	1335.952026	-241.053864	-538.953125	1208.861328	-212.245026	-783.888794	998.917664	-63.748016	-608.912109	986.884583	-490.315277	-598.318359	916.177795	-53.834033	-482.305435	822.544617	-507.676315	-637.249512	892.052856	-105.459473	-575.083252	853.905518	-338.881256	-777.546631	893.674744	-217.988831	-761.045044	876.940857	-303.609161	-769.295837	885.307800	-260.798996	-719.575684	1039.598389	-275.321136	-529.880493	1027.139160	-222.868973	-676.792358	679.491638	-7.831915	-679.434204	439.981171	-67.092926	-765.729126	328.296234	-12.009180	-804.498474	121.025208	-75.097916	-838.992126	108.477654	-136.147675	-719.406372	48.932446	-39.210236	-642.907654	579.585815	-418.141541	-630.986328	400.730865	-309.537628	-656.601318	257.106750	-355.595947	-698.282349	61.779621	-267.460724	-745.317993	44.765553	-227.871826	-577.866089	37.333271	-244.008591
467	4.66000000	-644.408325	1261.129883	-72.281143	-561.485901	1267.236694	-397.737671	-631.400513	1336.090820	-241.498917	-539.222778	1208.834473	-212.697098	-784.230042	999.061584	-64.126884	-609.649475	987.004578	-490.911011	-598.588470	916.253021	-54.396179	-483.641449	822.205444	-508.674240	-637.482117	892.345459	-105.811867	-575.480408	853.968750	-339.226746	-777.862915	893.585083	-218.247696	-761.415405	876.807068	-303.844757	-769.639160	885.196075	-261.046227	-719.973694	1039.667358	-275.744659	-530.247192	1027.154907	-223.332352	-676.685669	679.781860	-7.994160	-679.211365	440.196625	-67.127991	-765.491760	328.514862	-11.947049	-804.384521	121.223358	-74.946442	-838.885315	108.684349	-135.969650	-719.296631	49.069313	-39.161495	-643.250671	579.646118	-418.318878	-631.170959	400.777832	-309.703339	-656.756470	257.144379	-355.717529	-698.311584	61.769924	-267.516907	-745.325623	44.768406	-227.932877	-577.842285	37.306496	-244.042480
468	4.67000000	-644.620056	1261.205322	-72.727303	-561.713684	1267.235352	-398.189880	-631.388306	1336.225464	-241.942017	-539.467102	1208.802979	-213.145538	-784.547119	999.194763	-64.523705	-610.327026	987.127747	-491.505219	-598.872742	916.303131	-54.981621	-484.887466	821.895447	-509.644882	-637.706421	892.644897	-106.168251	-575.859497	854.031982	-339.577728	-778.165894	893.503296	-218.515228	-761.769531	876.675476	-304.086761	-769.967712	885.089386	-261.300995	-720.350159	1039.738892	-276.179321	-530.591248	1027.166748	-223.797806	-676.562195	680.085388	-8.159408	-678.995972	440.421204	-67.163002	-765.259277	328.748230	-11.868768	-804.284668	121.432037	-74.772263	-838.806885	108.902298	-135.755295	-719.192444	49.217083	-39.098392	-643.598083	579.705994	-418.497040	-631.352661	400.823364	-309.866577	-656.906311	257.182373	-355.828064	-698.338989	61.760555	-267.568726	-745.330933	44.773880	-227.992279	-577.817566	37.280037	-244.074890
